HIERARCHY
ROOT simHips
{
  OFFSET -174.591 98.2095 26.4763
  CHANNELS 6 Xposition Yposition Zposition Zrotation Xrotation Yrotation
  JOINT simSpine
  {
    OFFSET -0.000355721 21.3001 -0.016921
    CHANNELS 3 Zrotation Xrotation Yrotation
    JOINT simLeftArm
    {
      OFFSET 13.5181 21.3012 0
      CHANNELS 3 Zrotation Xrotation Yrotation
      JOINT simLeftForeArm
      {
        OFFSET 24.5783 0 0
        CHANNELS 3 Zrotation Xrotation Yrotation
        JOINT simLeftHand
        {
          OFFSET 24.5783 0 0
          CHANNELS 3 Zrotation Xrotation Yrotation
          End Site
          {
            OFFSET 7.32568 1.52588e-05 0.0169305
          }
        }
      }
    }
    JOINT simHead
    {
      OFFSET 0 27.4458 -0.00489235
      CHANNELS 3 Zrotation Xrotation Yrotation
      End Site
      {
        OFFSET 0 0 0
      }
    }
    JOINT simRightArm
    {
      OFFSET -13.5174 21.3012 0
      CHANNELS 3 Zrotation Xrotation Yrotation
      JOINT simRightForeArm
      {
        OFFSET -24.5783 0 0
        CHANNELS 3 Zrotation Xrotation Yrotation
        JOINT simRightHand
        {
          OFFSET -24.5783 0 0
          CHANNELS 3 Zrotation Xrotation Yrotation
          End Site
          {
            OFFSET -7.32568 1.52588e-05 0.0169305
          }
        }
      }
    }
  }
  JOINT simRightUpLeg
  {
    OFFSET -8.44614 -9.41038 0.835684
    CHANNELS 3 Zrotation Xrotation Yrotation
    JOINT simRightLeg
    {
      OFFSET 0 -40.9639 0
      CHANNELS 3 Zrotation Xrotation Yrotation
      JOINT simRightFoot
      {
        OFFSET 0 -40.9639 0
        CHANNELS 3 Zrotation Xrotation Yrotation
        End Site
        {
          OFFSET 0.50614 -9.67405 14.6709
        }
      }
    }
  }
  JOINT simLeftUpLeg
  {
    OFFSET 8.44614 -9.41038 0.835684
    CHANNELS 3 Zrotation Xrotation Yrotation
    JOINT simLeftLeg
    {
      OFFSET 0 -40.9639 0
      CHANNELS 3 Zrotation Xrotation Yrotation
      JOINT simLeftFoot
      {
        OFFSET 0 -40.9639 0
        CHANNELS 3 Zrotation Xrotation Yrotation
        End Site
        {
          OFFSET -0.50614 -9.67405 14.6709
        }
      }
    }
  }
}
MOTION
Frames:	12
Frame Time:	0.0333333
-154.935 98.7527 122.456 0.194185 1.69618 -3.89418 1.08013 -1.16721 -2.58539 -27.3862 5.93598 -7.96688 6.80188 1.86725 -9.9028 -4.56206 2.80447 -0.251346 4.02851 -0.307928 10.3228 15.2655 16.0074 5.11001 -5.36899 -1.12656 4.0069 2.4736 -2.83182 0.19189 5.68736 -5.2231 -4.04733 -0.140438 0.0887606 -0.0791784 -6.77843 4.45253 -1.14204 1.41336 -9.20457 -1.28095 -3.5941 8.91211 0.286635 1.0523 0.498336 5.17899 
-155.329 98.7103 121.363 0.21358 1.90872 -2.92703 1.44951 -0.0864897 -2.50668 -34.1824 9.06415 -8.25683 7.34481 1.96146 -10.6866 -5.39214 3.30272 -0.0327272 4.16239 -0.938643 13.1848 20.1453 20.1726 5.48998 -5.67267 -1.20198 4.23141 3.51226 -2.69849 0.348518 5.86222 -6.18442 -5.13834 -0.162567 0.0887606 -0.0902508 -7.06649 5.08785 -1.00177 1.92458 -11.0132 -1.48822 -4.17516 10.2419 0.384043 0.353377 0.78942 4.57051 
-155.757 98.671 120.145 0.366107 2.23293 -1.80814 1.73051 1.04554 -2.3422 -41.1783 12.7139 -8.55579 7.99936 2.06826 -11.6255 -6.45089 4.09624 0.199156 4.0796 -1.80366 16.0011 25.0501 24.7116 5.97389 -5.90852 -1.26129 4.40398 4.5564 -1.64178 0.86206 5.85069 -7.35982 -6.37785 -0.161572 0.0912704 -0.0985441 -7.07129 5.61684 -0.69853 2.23344 -12.9078 -1.49375 -4.56498 11.3453 0.450487 -0.381428 1.65664 3.42421 
-156.23 98.6458 118.847 0.685336 2.72214 -0.500585 1.80545 2.1537 -2.16352 -47.8464 16.3428 -9.09082 8.54114 2.14614 -12.4047 -8.20764 5.6504 0.0481585 3.86068 -2.91263 18.5174 30.1701 29.1543 6.69409 -5.98377 -1.28053 4.46277 4.65115 -0.615776 0.966615 5.61953 -8.76922 -7.67977 -0.178772 0.0789199 -0.104262 -6.92282 6.16562 -0.546564 2.25254 -14.8927 -1.35567 -4.69395 12.1336 0.47898 -1.44893 2.85478 1.86713 
-156.721 98.62 117.543 1.027 3.36891 0.890643 1.83802 3.07749 -1.79701 -54.1087 20.3173 -9.60557 9.06696 2.21574 -13.1573 -9.50266 7.10358 -0.321972 3.47479 -4.10881 20.3594 35.2456 33.9757 7.37684 -6.35897 -1.37488 4.73986 5.41327 -0.185992 1.33065 5.28487 -10.3177 -9.00297 -0.162534 0.00114402 -0.107381 -6.81025 6.82867 -0.441759 2.09892 -16.7224 -1.39307 -4.5505 12.4965 0.457639 -2.75406 4.04881 -0.16628 
-157.2 98.5778 116.267 1.367 3.77706 2.18517 1.88659 3.91417 -1.18815 -60.1297 24.3176 -9.42513 9.81443 2.30206 -14.228 -10.6435 8.81726 -0.531548 2.83466 -5.06928 21.4894 39.8492 38.9515 8.23039 -6.83923 -1.50335 5.09416 5.878 1.6377 1.89895 4.88142 -11.6469 -9.86023 -0.15739 0.0814005 -0.1096 -6.55963 7.42187 -0.745826 1.84967 -17.7951 -2.66224 -4.38267 12.5088 0.468375 -4.35926 3.47405 -2.28628 
-157.657 98.5343 115.076 1.84545 4.02792 3.32132 1.66442 4.67324 -0.429761 -65.2731 27.9075 -8.81741 10.5687 2.37492 -15.3076 -12.2986 11.1451 -1.09683 2.30015 -5.74701 22.0846 43.8001 43.4787 9.5949 -7.23007 -1.60894 5.38326 5.8699 2.56954 2.25185 4.31663 -12.6077 -10.5339 -0.133711 -0.0394103 -0.111713 -6.32638 8.0449 -1.15982 1.57424 -18.3086 -4.7468 -5.0532 13.4292 0.667314 -5.2614 0.626415 -3.32063 
-158.055 98.5018 113.987 2.42107 4.06738 4.19517 1.28619 5.21922 0.649706 -69.8262 30.7576 -7.75038 11.1914 2.42419 -16.1979 -13.6944 12.6541 -1.64454 1.80418 -5.79181 22.2208 46.4606 48.7674 11.3376 -8.09933 -1.85051 6.02348 6.19107 3.11291 2.68676 3.66303 -13.4221 -10.8919 -0.161203 0.0693824 -0.115447 -6.16658 8.64454 -1.63219 1.33855 -18.0897 -6.57934 -6.77017 15.5105 1.04479 -3.0605 -2.3344 -1.61438 
-158.412 98.4859 112.972 2.98049 4.16345 5.01468 0.840956 5.33267 1.76996 -73.7848 32.7637 -6.16795 11.7795 2.46181 -17.0388 -14.2653 13.274 -1.71577 1.39764 -5.52672 22.0568 47.3481 54.7545 13.8587 -9.57662 -2.28516 7.10798 6.47955 4.41229 3.46781 2.98258 -14.1478 -11.4373 -0.153783 0.0437859 -0.119682 -5.94714 9.25929 -1.90586 1.21638 -17.7462 -7.5505 -9.35279 18.7673 1.69643 -0.32138 -3.77016 3.54562 
-158.719 98.459 111.981 3.37362 4.37195 5.96694 0.499808 5.03519 2.56527 -77.0081 33.5773 -4.24368 12.2903 2.48751 -17.7686 -14.6053 13.3923 -1.9409 1.16121 -5.37276 22.0216 46.1186 61.0094 17.3818 -11.8519 -3.01401 8.76767 6.70595 5.75668 4.41281 2.38058 -14.9841 -12.3717 -0.156211 0.0759506 -0.122551 -5.8056 9.83532 -1.88535 1.72219 -17.0406 -7.73669 -13.3357 22.5084 2.88989 2.70877 -4.51898 8.71832 
-159.004 98.416 110.964 3.67638 4.61361 7.34207 0.167423 4.53065 2.84554 -79.2211 33.9508 -2.35027 12.7044 2.50357 -18.3601 -14.705 12.9901 -2.20575 1.06082 -5.50344 22.0118 43.2063 66.3663 21.5576 -14.7059 -4.03066 10.829 7.10412 7.07546 5.52667 1.7125 -15.7882 -13.5409 -0.142017 -0.011605 -0.122068 -5.6493 10.4618 -2.0637 2.18377 -15.6787 -7.90031 -17.3518 25.9127 4.3411 4.53572 -4.98432 10.9245 
-159.252 98.3421 109.918 3.79319 4.76595 9.0878 0.0115565 3.87931 2.75221 -80.5194 33.9528 -0.782065 12.8839 2.50921 -18.6164 -14.817 12.826 -2.25944 0.918728 -5.69434 21.9965 40.3456 69.7994 25.0763 -17.2504 -5.03393 12.645 7.37723 8.12018 6.56572 1.07196 -16.5819 -14.9014 -0.169551 0.09451 -0.132794 -5.46496 10.9911 -2.39245 2.2814 -14.184 -8.73856 -20.6401 29.6872 5.91091 5.0897 -6.64637 10.7739 
